<svg width="64" height="64" viewBox="0 0 40 40" fill="none" xmlns="http://www.w3.org/2000/svg">
  <rect width="40" height="40" rx="10" fill="#ecfdf5" />
  <path d="M20 8c-2.2 0-4 2.3-4 5.2v.8h8v-.8c0-2.9-1.8-5.2-4-5.2z" fill="#0d9488" />
  <rect x="19" y="6" width="2" height="3" fill="#0d9488" />
  <path d="M12 17h16l-1.5 3h-13L12 17z" fill="#0d9488" />
  <rect x="13" y="20" width="2.4" height="8" fill="#0d9488" />
  <rect x="17" y="20" width="2.4" height="8" fill="#0d9488" />
  <rect x="20.6" y="20" width="2.4" height="8" fill="#0d9488" />
  <rect x="24.2" y="20" width="2.4" height="8" fill="#0d9488" />
  <rect x="11" y="28" width="18" height="2.4" fill="#0d9488" />
  <path d="M7 26l6-7 5 4 8-11 6 5" stroke="#10b981" stroke-width="2.4" stroke-linecap="round" stroke-linejoin="round" fill="none" />
  <path d="M27 11l5 6-6.5 1.5L27 11z" fill="#10b981" />
</svg>
